<?xml version="1.0" encoding="UTF-8"?>
<!DOCTYPE svg PUBLIC "-//W3C//DTD SVG 1.1//EN" "http://www.w3.org/Graphics/SVG/1.1/DTD/svg11.dtd">
<svg xmlns="http://www.w3.org/2000/svg" version="1.1" width="160px" height="160px" style="shape-rendering:geometricPrecision; text-rendering:geometricPrecision; image-rendering:optimizeQuality; fill-rule:evenodd; clip-rule:evenodd" xmlns:xlink="http://www.w3.org/1999/xlink">
<g><path style="opacity:1" fill="#815d15" d="M 129.5,-0.5 C 139.5,-0.5 149.5,-0.5 159.5,-0.5C 159.5,2.83333 159.5,6.16667 159.5,9.5C 156.167,9.5 152.833,9.5 149.5,9.5C 142.833,9.5 136.167,9.5 129.5,9.5C 129.5,6.16667 129.5,2.83333 129.5,-0.5 Z"/></g>
<g><path style="opacity:1" fill="#815d15" d="M 129.5,9.5 C 129.5,12.8333 129.5,16.1667 129.5,19.5C 126.167,19.5 122.833,19.5 119.5,19.5C 119.5,16.1667 119.5,12.8333 119.5,9.5C 122.833,9.5 126.167,9.5 129.5,9.5 Z"/></g>
<g><path style="opacity:1" fill="#fefffe" d="M 129.5,9.5 C 136.167,9.5 142.833,9.5 149.5,9.5C 149.5,16.1667 149.5,22.8333 149.5,29.5C 146.167,29.5 142.833,29.5 139.5,29.5C 139.5,26.1667 139.5,22.8333 139.5,19.5C 136.167,19.5 132.833,19.5 129.5,19.5C 129.5,16.1667 129.5,12.8333 129.5,9.5 Z"/></g>
<g><path style="opacity:1" fill="#3e2e0d" d="M 149.5,9.5 C 152.833,9.5 156.167,9.5 159.5,9.5C 159.5,16.1667 159.5,22.8333 159.5,29.5C 156.167,29.5 152.833,29.5 149.5,29.5C 149.5,22.8333 149.5,16.1667 149.5,9.5 Z"/></g>
<g><path style="opacity:1" fill="#815d15" d="M 119.5,19.5 C 119.5,22.8333 119.5,26.1667 119.5,29.5C 116.167,29.5 112.833,29.5 109.5,29.5C 109.5,26.1667 109.5,22.8333 109.5,19.5C 112.833,19.5 116.167,19.5 119.5,19.5 Z"/></g>
<g><path style="opacity:1" fill="#fefffe" d="M 119.5,19.5 C 122.833,19.5 126.167,19.5 129.5,19.5C 129.5,22.8333 129.5,26.1667 129.5,29.5C 126.167,29.5 122.833,29.5 119.5,29.5C 119.5,26.1667 119.5,22.8333 119.5,19.5 Z"/></g>
<g><path style="opacity:1" fill="#e9ee56" d="M 129.5,19.5 C 132.833,19.5 136.167,19.5 139.5,19.5C 139.5,22.8333 139.5,26.1667 139.5,29.5C 136.167,29.5 132.833,29.5 129.5,29.5C 129.5,26.1667 129.5,22.8333 129.5,19.5 Z"/></g>
<g><path style="opacity:1" fill="#815d15" d="M 109.5,29.5 C 109.5,32.8333 109.5,36.1667 109.5,39.5C 106.167,39.5 102.833,39.5 99.5,39.5C 99.5,36.1667 99.5,32.8333 99.5,29.5C 102.833,29.5 106.167,29.5 109.5,29.5 Z"/></g>
<g><path style="opacity:1" fill="#fefffe" d="M 109.5,29.5 C 112.833,29.5 116.167,29.5 119.5,29.5C 119.5,32.8333 119.5,36.1667 119.5,39.5C 116.167,39.5 112.833,39.5 109.5,39.5C 109.5,36.1667 109.5,32.8333 109.5,29.5 Z"/></g>
<g><path style="opacity:1" fill="#fefffe" d="M 129.5,29.5 C 132.833,29.5 136.167,29.5 139.5,29.5C 139.5,32.8333 139.5,36.1667 139.5,39.5C 136.167,39.5 132.833,39.5 129.5,39.5C 129.5,36.1667 129.5,32.8333 129.5,29.5 Z"/></g>
<g><path style="opacity:1" fill="#3e2e0d" d="M 139.5,29.5 C 142.833,29.5 146.167,29.5 149.5,29.5C 149.5,32.8333 149.5,36.1667 149.5,39.5C 146.167,39.5 142.833,39.5 139.5,39.5C 139.5,36.1667 139.5,32.8333 139.5,29.5 Z"/></g>
<g><path style="opacity:1" fill="#815d15" d="M 99.5,39.5 C 99.5,42.8333 99.5,46.1667 99.5,49.5C 96.1667,49.5 92.8333,49.5 89.5,49.5C 89.5,46.1667 89.5,42.8333 89.5,39.5C 92.8333,39.5 96.1667,39.5 99.5,39.5 Z"/></g>
<g><path style="opacity:1" fill="#fefffe" d="M 99.5,39.5 C 102.833,39.5 106.167,39.5 109.5,39.5C 109.5,42.8333 109.5,46.1667 109.5,49.5C 106.167,49.5 102.833,49.5 99.5,49.5C 99.5,46.1667 99.5,42.8333 99.5,39.5 Z"/></g>
<g><path style="opacity:1" fill="#3e2e0d" d="M 129.5,39.5 C 132.833,39.5 136.167,39.5 139.5,39.5C 139.5,42.8333 139.5,46.1667 139.5,49.5C 136.167,49.5 132.833,49.5 129.5,49.5C 129.5,46.1667 129.5,42.8333 129.5,39.5 Z"/></g>
<g><path style="opacity:1" fill="#815d15" d="M 89.5,49.5 C 89.5,52.8333 89.5,56.1667 89.5,59.5C 86.1667,59.5 82.8333,59.5 79.5,59.5C 79.5,56.1667 79.5,52.8333 79.5,49.5C 82.8333,49.5 86.1667,49.5 89.5,49.5 Z"/></g>
<g><path style="opacity:1" fill="#fefffe" d="M 89.5,49.5 C 92.8333,49.5 96.1667,49.5 99.5,49.5C 99.5,52.8333 99.5,56.1667 99.5,59.5C 96.1667,59.5 92.8333,59.5 89.5,59.5C 89.5,56.1667 89.5,52.8333 89.5,49.5 Z"/></g>
<g><path style="opacity:1" fill="#f6f96b" d="M 119.5,29.5 C 122.833,29.5 126.167,29.5 129.5,29.5C 129.5,32.8333 129.5,36.1667 129.5,39.5C 129.5,42.8333 129.5,46.1667 129.5,49.5C 126.167,49.5 122.833,49.5 119.5,49.5C 119.5,52.8333 119.5,56.1667 119.5,59.5C 116.167,59.5 112.833,59.5 109.5,59.5C 109.5,62.8333 109.5,66.1667 109.5,69.5C 106.167,69.5 102.833,69.5 99.5,69.5C 99.5,66.1667 99.5,62.8333 99.5,59.5C 99.5,56.1667 99.5,52.8333 99.5,49.5C 102.833,49.5 106.167,49.5 109.5,49.5C 109.5,46.1667 109.5,42.8333 109.5,39.5C 112.833,39.5 116.167,39.5 119.5,39.5C 119.5,36.1667 119.5,32.8333 119.5,29.5 Z"/></g>
<g><path style="opacity:1" fill="#3e2e0d" d="M 129.5,49.5 C 129.5,52.8333 129.5,56.1667 129.5,59.5C 126.167,59.5 122.833,59.5 119.5,59.5C 119.5,56.1667 119.5,52.8333 119.5,49.5C 122.833,49.5 126.167,49.5 129.5,49.5 Z"/></g>
<g><path style="opacity:1" fill="#815d15" d="M 39.5,69.5 C 36.1667,69.5 32.8333,69.5 29.5,69.5C 29.5,72.8333 29.5,76.1667 29.5,79.5C 26.1667,79.5 22.8333,79.5 19.5,79.5C 19.5,72.8333 19.5,66.1667 19.5,59.5C 26.1667,59.5 32.8333,59.5 39.5,59.5C 39.5,62.8333 39.5,66.1667 39.5,69.5 Z"/></g>
<g><path style="opacity:1" fill="#815d15" d="M 79.5,59.5 C 79.5,62.8333 79.5,66.1667 79.5,69.5C 76.1667,69.5 72.8333,69.5 69.5,69.5C 69.5,66.1667 69.5,62.8333 69.5,59.5C 72.8333,59.5 76.1667,59.5 79.5,59.5 Z"/></g>
<g><path style="opacity:1" fill="#3e2e0d" d="M 119.5,59.5 C 119.5,62.8333 119.5,66.1667 119.5,69.5C 116.167,69.5 112.833,69.5 109.5,69.5C 109.5,66.1667 109.5,62.8333 109.5,59.5C 112.833,59.5 116.167,59.5 119.5,59.5 Z"/></g>
<g><path style="opacity:1" fill="#db9612" d="M 39.5,69.5 C 39.5,72.8333 39.5,76.1667 39.5,79.5C 36.1667,79.5 32.8333,79.5 29.5,79.5C 29.5,76.1667 29.5,72.8333 29.5,69.5C 32.8333,69.5 36.1667,69.5 39.5,69.5 Z"/></g>
<g><path style="opacity:1" fill="#815d15" d="M 39.5,69.5 C 42.8333,69.5 46.1667,69.5 49.5,69.5C 49.5,72.8333 49.5,76.1667 49.5,79.5C 46.1667,79.5 42.8333,79.5 39.5,79.5C 39.5,76.1667 39.5,72.8333 39.5,69.5 Z"/></g>
<g><path style="opacity:1" fill="#815d15" d="M 69.5,69.5 C 69.5,72.8333 69.5,76.1667 69.5,79.5C 66.1667,79.5 62.8333,79.5 59.5,79.5C 59.5,76.1667 59.5,72.8333 59.5,69.5C 62.8333,69.5 66.1667,69.5 69.5,69.5 Z"/></g>
<g><path style="opacity:1" fill="#f3f666" d="M 79.5,59.5 C 82.8333,59.5 86.1667,59.5 89.5,59.5C 92.8333,59.5 96.1667,59.5 99.5,59.5C 99.5,62.8333 99.5,66.1667 99.5,69.5C 99.5,72.8333 99.5,76.1667 99.5,79.5C 96.1667,79.5 92.8333,79.5 89.5,79.5C 89.5,82.8333 89.5,86.1667 89.5,89.5C 86.1667,89.5 82.8333,89.5 79.5,89.5C 79.5,86.1667 79.5,82.8333 79.5,79.5C 76.1667,79.5 72.8333,79.5 69.5,79.5C 69.5,76.1667 69.5,72.8333 69.5,69.5C 72.8333,69.5 76.1667,69.5 79.5,69.5C 79.5,66.1667 79.5,62.8333 79.5,59.5 Z"/></g>
<g><path style="opacity:1" fill="#3e2e0d" d="M 99.5,69.5 C 102.833,69.5 106.167,69.5 109.5,69.5C 109.5,72.8333 109.5,76.1667 109.5,79.5C 106.167,79.5 102.833,79.5 99.5,79.5C 99.5,76.1667 99.5,72.8333 99.5,69.5 Z"/></g>
<g><path style="opacity:1" fill="#815d15" d="M 29.5,79.5 C 32.8333,79.5 36.1667,79.5 39.5,79.5C 39.5,86.1667 39.5,92.8333 39.5,99.5C 36.1667,99.5 32.8333,99.5 29.5,99.5C 29.5,92.8333 29.5,86.1667 29.5,79.5 Z"/></g>
<g><path style="opacity:1" fill="#e8b114" d="M 39.5,79.5 C 42.8333,79.5 46.1667,79.5 49.5,79.5C 49.5,82.8333 49.5,86.1667 49.5,89.5C 52.8333,89.5 56.1667,89.5 59.5,89.5C 59.5,92.8333 59.5,96.1667 59.5,99.5C 56.1667,99.5 52.8333,99.5 49.5,99.5C 46.1667,99.5 42.8333,99.5 39.5,99.5C 39.5,92.8333 39.5,86.1667 39.5,79.5 Z"/></g>
<g><path style="opacity:1" fill="#3e2e0d" d="M 49.5,79.5 C 52.8333,79.5 56.1667,79.5 59.5,79.5C 59.5,82.8333 59.5,86.1667 59.5,89.5C 56.1667,89.5 52.8333,89.5 49.5,89.5C 49.5,86.1667 49.5,82.8333 49.5,79.5 Z"/></g>
<g><path style="opacity:1" fill="#fcff75" d="M 59.5,79.5 C 62.8333,79.5 66.1667,79.5 69.5,79.5C 69.5,82.8333 69.5,86.1667 69.5,89.5C 66.1667,89.5 62.8333,89.5 59.5,89.5C 59.5,86.1667 59.5,82.8333 59.5,79.5 Z"/></g>
<g><path style="opacity:1" fill="#e8b114" d="M 69.5,79.5 C 72.8333,79.5 76.1667,79.5 79.5,79.5C 79.5,82.8333 79.5,86.1667 79.5,89.5C 76.1667,89.5 72.8333,89.5 69.5,89.5C 69.5,86.1667 69.5,82.8333 69.5,79.5 Z"/></g>
<g><path style="opacity:1" fill="#3e2e0d" d="M 99.5,79.5 C 99.5,82.8333 99.5,86.1667 99.5,89.5C 96.1667,89.5 92.8333,89.5 89.5,89.5C 89.5,86.1667 89.5,82.8333 89.5,79.5C 92.8333,79.5 96.1667,79.5 99.5,79.5 Z"/></g>
<g><path style="opacity:1" fill="#db9612" d="M 59.5,89.5 C 62.8333,89.5 66.1667,89.5 69.5,89.5C 69.5,92.8333 69.5,96.1667 69.5,99.5C 66.1667,99.5 62.8333,99.5 59.5,99.5C 59.5,96.1667 59.5,92.8333 59.5,89.5 Z"/></g>
<g><path style="opacity:1" fill="#fcff75" d="M 69.5,89.5 C 72.8333,89.5 76.1667,89.5 79.5,89.5C 79.5,92.8333 79.5,96.1667 79.5,99.5C 76.1667,99.5 72.8333,99.5 69.5,99.5C 69.5,96.1667 69.5,92.8333 69.5,89.5 Z"/></g>
<g><path style="opacity:1" fill="#3e2e0d" d="M 79.5,89.5 C 82.8333,89.5 86.1667,89.5 89.5,89.5C 89.5,92.8333 89.5,96.1667 89.5,99.5C 86.1667,99.5 82.8333,99.5 79.5,99.5C 79.5,96.1667 79.5,92.8333 79.5,89.5 Z"/></g>
<g><path style="opacity:1" fill="#815d15" d="M 39.5,99.5 C 42.8333,99.5 46.1667,99.5 49.5,99.5C 49.5,102.833 49.5,106.167 49.5,109.5C 46.1667,109.5 42.8333,109.5 39.5,109.5C 39.5,106.167 39.5,102.833 39.5,99.5 Z"/></g>
<g><path style="opacity:1" fill="#db9612" d="M 49.5,99.5 C 52.8333,99.5 56.1667,99.5 59.5,99.5C 59.5,102.833 59.5,106.167 59.5,109.5C 56.1667,109.5 52.8333,109.5 49.5,109.5C 49.5,106.167 49.5,102.833 49.5,99.5 Z"/></g>
<g><path style="opacity:1" fill="#815d15" d="M 59.5,99.5 C 62.8333,99.5 66.1667,99.5 69.5,99.5C 69.5,102.833 69.5,106.167 69.5,109.5C 72.8333,109.5 76.1667,109.5 79.5,109.5C 79.5,112.833 79.5,116.167 79.5,119.5C 72.8333,119.5 66.1667,119.5 59.5,119.5C 59.5,116.167 59.5,112.833 59.5,109.5C 59.5,106.167 59.5,102.833 59.5,99.5 Z"/></g>
<g><path style="opacity:1" fill="#3e2e0d" d="M 69.5,99.5 C 72.8333,99.5 76.1667,99.5 79.5,99.5C 79.5,102.833 79.5,106.167 79.5,109.5C 76.1667,109.5 72.8333,109.5 69.5,109.5C 69.5,106.167 69.5,102.833 69.5,99.5 Z"/></g>
<g><path style="opacity:1" fill="#483614" d="M 39.5,109.5 C 39.5,112.833 39.5,116.167 39.5,119.5C 36.1667,119.5 32.8333,119.5 29.5,119.5C 29.5,116.167 29.5,112.833 29.5,109.5C 32.8333,109.5 36.1667,109.5 39.5,109.5 Z"/></g>
<g><path style="opacity:1" fill="#674e1d" d="M 39.5,109.5 C 42.8333,109.5 46.1667,109.5 49.5,109.5C 49.5,112.833 49.5,116.167 49.5,119.5C 46.1667,119.5 42.8333,119.5 39.5,119.5C 39.5,116.167 39.5,112.833 39.5,109.5 Z"/></g>
<g><path style="opacity:1" fill="#3e2e0d" d="M 49.5,109.5 C 52.8333,109.5 56.1667,109.5 59.5,109.5C 59.5,112.833 59.5,116.167 59.5,119.5C 56.1667,119.5 52.8333,119.5 49.5,119.5C 49.5,116.167 49.5,112.833 49.5,109.5 Z"/></g>
<g><path style="opacity:1" fill="#3e2e0d" d="M 79.5,109.5 C 82.8333,109.5 86.1667,109.5 89.5,109.5C 89.5,112.833 89.5,116.167 89.5,119.5C 86.1667,119.5 82.8333,119.5 79.5,119.5C 79.5,116.167 79.5,112.833 79.5,109.5 Z"/></g>
<g><path style="opacity:1" fill="#483614" d="M 29.5,119.5 C 29.5,122.833 29.5,126.167 29.5,129.5C 26.1667,129.5 22.8333,129.5 19.5,129.5C 19.5,126.167 19.5,122.833 19.5,119.5C 22.8333,119.5 26.1667,119.5 29.5,119.5 Z"/></g>
<g><path style="opacity:1" fill="#886726" d="M 29.5,119.5 C 32.8333,119.5 36.1667,119.5 39.5,119.5C 39.5,122.833 39.5,126.167 39.5,129.5C 36.1667,129.5 32.8333,129.5 29.5,129.5C 29.5,126.167 29.5,122.833 29.5,119.5 Z"/></g>
<g><path style="opacity:1" fill="#271e0a" d="M 39.5,119.5 C 42.8333,119.5 46.1667,119.5 49.5,119.5C 49.5,122.833 49.5,126.167 49.5,129.5C 46.1667,129.5 42.8333,129.5 39.5,129.5C 39.5,126.167 39.5,122.833 39.5,119.5 Z"/></g>
<g><path style="opacity:1" fill="#3e2e0d" d="M 59.5,119.5 C 66.1667,119.5 72.8333,119.5 79.5,119.5C 79.5,122.833 79.5,126.167 79.5,129.5C 72.8333,129.5 66.1667,129.5 59.5,129.5C 59.5,126.167 59.5,122.833 59.5,119.5 Z"/></g>
<g><path style="opacity:1" fill="#815d15" d="M 79.5,119.5 C 82.8333,119.5 86.1667,119.5 89.5,119.5C 89.5,122.833 89.5,126.167 89.5,129.5C 86.1667,129.5 82.8333,129.5 79.5,129.5C 79.5,126.167 79.5,122.833 79.5,119.5 Z"/></g>
<g><path style="opacity:1" fill="#3e2e0d" d="M 89.5,119.5 C 92.8333,119.5 96.1667,119.5 99.5,119.5C 99.5,126.167 99.5,132.833 99.5,139.5C 92.8333,139.5 86.1667,139.5 79.5,139.5C 79.5,136.167 79.5,132.833 79.5,129.5C 82.8333,129.5 86.1667,129.5 89.5,129.5C 89.5,126.167 89.5,122.833 89.5,119.5 Z"/></g>
<g><path style="opacity:1" fill="#815d15" d="M -0.5,129.5 C 6.16667,129.5 12.8333,129.5 19.5,129.5C 19.5,132.833 19.5,136.167 19.5,139.5C 16.1667,139.5 12.8333,139.5 9.5,139.5C 9.5,142.833 9.5,146.167 9.5,149.5C 6.16667,149.5 2.83333,149.5 -0.5,149.5C -0.5,142.833 -0.5,136.167 -0.5,129.5 Z"/></g>
<g><path style="opacity:1" fill="#674e1d" d="M 19.5,129.5 C 22.8333,129.5 26.1667,129.5 29.5,129.5C 29.5,132.833 29.5,136.167 29.5,139.5C 26.1667,139.5 22.8333,139.5 19.5,139.5C 19.5,136.167 19.5,132.833 19.5,129.5 Z"/></g>
<g><path style="opacity:1" fill="#271e0a" d="M 29.5,129.5 C 32.8333,129.5 36.1667,129.5 39.5,129.5C 39.5,132.833 39.5,136.167 39.5,139.5C 36.1667,139.5 32.8333,139.5 29.5,139.5C 29.5,136.167 29.5,132.833 29.5,129.5 Z"/></g>
<g><path style="opacity:1" fill="#db9612" d="M 19.5,139.5 C 19.5,142.833 19.5,146.167 19.5,149.5C 16.1667,149.5 12.8333,149.5 9.5,149.5C 9.5,146.167 9.5,142.833 9.5,139.5C 12.8333,139.5 16.1667,139.5 19.5,139.5 Z"/></g>
<g><path style="opacity:1" fill="#3e2e0d" d="M 19.5,139.5 C 22.8333,139.5 26.1667,139.5 29.5,139.5C 29.5,146.167 29.5,152.833 29.5,159.5C 19.5,159.5 9.5,159.5 -0.5,159.5C -0.5,156.167 -0.5,152.833 -0.5,149.5C 2.83333,149.5 6.16667,149.5 9.5,149.5C 12.8333,149.5 16.1667,149.5 19.5,149.5C 19.5,146.167 19.5,142.833 19.5,139.5 Z"/></g>
</svg>
